<svg width="160" height="52" viewBox="0 0 160 52" fill="none" xmlns="http://www.w3.org/2000/svg">
<rect x="0.5" y="0.5" width="159" height="51" rx="7.5" stroke="#E8E8E8"/>
<path d="M32.745 27.1174C32.7721 25.2182 33.7581 23.4659 35.3564 22.4767C34.3535 21.0056 32.7241 20.1023 30.9621 20.0406C29.1131 19.8457 27.3182 21.1673 26.3757 21.1673C25.4332 21.1673 23.9744 20.065 22.4076 20.0954C20.3517 20.1624 18.4811 21.3182 17.479 23.1405C15.3479 26.8799 16.9387 32.3793 18.9798 35.4C20.0003 36.886 21.1949 38.5364 22.7558 38.4451C24.3166 38.3537 24.8509 37.4585 26.6938 37.4585C28.5368 37.4585 29.0531 38.4451 30.6499 38.4085C32.2467 38.372 33.3213 36.9225 34.3058 35.4304C35.0261 34.3911 35.583 33.2447 35.9567 32.0321C34.0131 31.1936 32.7496 29.2601 32.745 27.1174Z" fill="white"/>
<path d="M29.7369 18.0796C30.6215 16.9882 31.0522 15.5901 30.9375 14.1819C29.5753 14.3154 28.3137 14.9683 27.4077 16.0089C26.5126 17.0421 26.059 18.3939 26.147 19.7666C27.5352 19.7917 28.8581 19.17 29.7369 18.0796Z" fill="white"/>
<path d="M53.7821 20.5985C53.2624 20.5985 52.7746 20.5065 52.3188 20.3226C51.863 20.1307 51.4712 19.8508 51.1433 19.483L51.815 18.8353C52.3268 19.371 52.9625 19.6389 53.7221 19.6389C54.2899 19.6389 54.7297 19.499 55.0415 19.2191C55.3534 18.9392 55.5093 18.5554 55.5093 18.0676C55.5093 17.5799 55.3534 17.208 55.0415 16.9521C54.7377 16.6883 54.2859 16.5563 53.6862 16.5563H52.8945L53.0504 15.6207H53.6982C54.1779 15.6207 54.5578 15.5008 54.8376 15.2609C55.1255 15.013 55.2694 14.6772 55.2694 14.2534C55.2694 13.8775 55.1535 13.5737 54.9216 13.3418C54.6977 13.1019 54.3499 12.9819 53.8781 12.9819C53.2224 12.9819 52.5827 13.2378 51.9589 13.7496L51.3592 13.0659C52.1269 12.3862 52.9945 12.0464 53.962 12.0464C54.7617 12.0464 55.3774 12.2463 55.8092 12.6461C56.241 13.0379 56.4569 13.5417 56.4569 14.1574C56.4569 14.6612 56.313 15.073 56.0251 15.3928C55.7372 15.7047 55.3414 15.9166 54.8376 16.0286C55.3814 16.0845 55.8332 16.2884 56.193 16.6403C56.5529 16.9921 56.7328 17.4719 56.7328 18.0796C56.7328 18.5754 56.6048 19.0152 56.349 19.399C56.1011 19.7749 55.7532 20.0707 55.3054 20.2866C54.8576 20.4945 54.3499 20.5985 53.7821 20.5985Z" fill="white"/>
<path d="M62.6759 18.9792C62.6759 19.2351 62.7199 19.427 62.8078 19.555C62.8958 19.6749 63.0277 19.7669 63.2037 19.8308L62.9518 20.5985C62.6239 20.5585 62.36 20.4665 62.1601 20.3226C61.9602 20.1787 61.8123 19.9548 61.7163 19.6509C61.2925 20.2826 60.6648 20.5985 59.8332 20.5985C59.2095 20.5985 58.7177 20.4226 58.3579 20.0707C57.998 19.7189 57.8181 19.2591 57.8181 18.6913C57.8181 18.0197 58.058 17.5039 58.5378 17.144C59.0256 16.7842 59.7132 16.6043 60.6008 16.6043H61.5724V16.1365C61.5724 15.6887 61.4645 15.3689 61.2486 15.1769C61.0326 14.985 60.7008 14.8891 60.253 14.8891C59.7892 14.8891 59.2215 15.001 58.5498 15.2249L58.2739 14.4213C59.0575 14.1334 59.7852 13.9895 60.4569 13.9895C61.2006 13.9895 61.7563 14.1734 62.1242 14.5412C62.492 14.9011 62.6759 15.4168 62.6759 16.0885V18.9792ZM60.0851 19.7709C60.7168 19.7709 61.2126 19.443 61.5724 18.7873V17.336H60.7448C59.5773 17.336 58.9936 17.7678 58.9936 18.6314C58.9936 19.0072 59.0855 19.2911 59.2694 19.483C59.4534 19.6749 59.7252 19.7709 60.0851 19.7709Z" fill="white"/>
<path d="M66.0457 20.4546H64.9422V14.1334H68.8884L68.7445 15.045H66.0457V20.4546Z" fill="white"/>
<path d="M72.9871 13.9895C73.7947 13.9895 74.3865 14.2773 74.7623 14.8531C75.1381 15.4288 75.3261 16.2405 75.3261 17.288C75.3261 18.2795 75.1102 19.0792 74.6783 19.6869C74.2465 20.2946 73.6348 20.5985 72.8432 20.5985C72.1395 20.5985 71.5877 20.3586 71.1879 19.8788V22.8775L70.0844 23.0094V14.1334H71.032L71.116 14.985C71.3479 14.6652 71.6277 14.4213 71.9556 14.2534C72.2834 14.0774 72.6273 13.9895 72.9871 13.9895ZM72.5793 19.6989C73.6188 19.6989 74.1386 18.8953 74.1386 17.288C74.1386 15.6727 73.6628 14.8651 72.7112 14.8651C72.3994 14.8651 72.1155 14.957 71.8596 15.141C71.6037 15.3249 71.3798 15.5608 71.1879 15.8486V18.9312C71.3479 19.1791 71.5478 19.371 71.7877 19.507C72.0275 19.6349 72.2914 19.6989 72.5793 19.6989Z" fill="white"/>
<path d="M79.6902 20.4905C79.4423 21.2262 79.0945 21.8059 78.6467 22.2297C78.2069 22.6616 77.5752 22.9214 76.7515 23.0094L76.6316 22.1458C77.0474 22.0738 77.3793 21.9699 77.6271 21.8339C77.875 21.698 78.0709 21.5221 78.2149 21.3062C78.3668 21.0983 78.5067 20.8144 78.6347 20.4546H78.2629L76.1398 14.1334H77.3153L79.0065 19.6509L80.6618 14.1334H81.8013L79.6902 20.4905Z" fill="white"/>
<path d="M84.5051 13.9895C84.9049 13.9895 85.2767 14.0574 85.6206 14.1934C85.9724 14.3213 86.2523 14.5132 86.4602 14.7691C86.6761 15.025 86.7841 15.3329 86.7841 15.6927C86.7841 16.0445 86.6801 16.3324 86.4722 16.5563C86.2723 16.7802 85.9524 16.9521 85.5126 17.0721C86.0404 17.16 86.4402 17.324 86.7121 17.5639C86.984 17.8038 87.1199 18.1476 87.1199 18.5954C87.1199 19.2511 86.864 19.7509 86.3523 20.0947C85.8485 20.4306 85.2048 20.5985 84.4211 20.5985C83.4696 20.5985 82.6579 20.3346 81.9862 19.8068L82.562 19.1232C82.8418 19.3231 83.1217 19.471 83.4016 19.567C83.6895 19.6629 84.0173 19.7109 84.3851 19.7109C85.4167 19.7109 85.9324 19.3351 85.9324 18.5834C85.9324 18.2156 85.7845 17.9597 85.4886 17.8157C85.2008 17.6638 84.797 17.5878 84.2772 17.5878H83.4376L83.5095 16.7242H84.1572C84.605 16.7242 84.9649 16.6443 85.2368 16.4843C85.5086 16.3244 85.6446 16.0765 85.6446 15.7407C85.6446 15.4288 85.5286 15.2049 85.2967 15.069C85.0648 14.9251 84.761 14.8531 84.3851 14.8531C84.0573 14.8531 83.7654 14.8971 83.5095 14.985C83.2617 15.065 83.0098 15.1929 82.7539 15.3689L82.2261 14.7092C82.546 14.4693 82.8898 14.2893 83.2577 14.1694C83.6255 14.0494 84.0413 13.9895 84.5051 13.9895Z" fill="white"/>
<path d="M93.8609 20.4546H92.7693V17.5998C92.7693 17.1201 92.7853 16.6643 92.8173 16.2325C92.8493 15.8007 92.8773 15.5168 92.9013 15.3808L90.2505 20.4546H88.9431V14.1334H90.0346V16.9881C90.0346 17.4119 90.0186 17.8517 89.9866 18.3075C89.9546 18.7553 89.9306 19.0432 89.9146 19.1711L92.5295 14.1334H93.8609V20.4546Z" fill="white"/>
<path d="M100.405 14.1334L100.273 15.033H98.2462V20.4546H97.1427V15.033H95.0556V14.1334H100.405Z" fill="white"/>
<path d="M106.016 17.1081C106.016 17.292 106.008 17.4799 105.992 17.6718H101.962C102.01 18.3675 102.186 18.8793 102.49 19.2071C102.794 19.535 103.185 19.6989 103.665 19.6989C103.969 19.6989 104.249 19.6549 104.505 19.567C104.761 19.479 105.028 19.3391 105.308 19.1471L105.788 19.8068C105.116 20.3346 104.381 20.5985 103.581 20.5985C102.702 20.5985 102.014 20.3106 101.518 19.7349C101.03 19.1591 100.786 18.3675 100.786 17.36C100.786 16.7042 100.89 16.1245 101.098 15.6207C101.314 15.109 101.618 14.7092 102.01 14.4213C102.41 14.1334 102.877 13.9895 103.413 13.9895C104.253 13.9895 104.897 14.2654 105.344 14.8171C105.792 15.3689 106.016 16.1325 106.016 17.1081ZM104.925 16.7842C104.925 16.1605 104.801 15.6847 104.553 15.3569C104.305 15.029 103.933 14.8651 103.437 14.8651C102.534 14.8651 102.042 15.5288 101.962 16.8562H104.925V16.7842Z" fill="white"/>
<path d="M114.287 17.0241C115.359 17.1281 115.894 17.6238 115.894 18.5114C115.894 19.1751 115.651 19.6669 115.163 19.9868C114.683 20.2986 114.039 20.4546 113.232 20.4546H110.953V14.2174C111.696 14.0654 112.388 13.9895 113.028 13.9895C113.811 13.9895 114.431 14.1374 114.887 14.4333C115.343 14.7291 115.571 15.153 115.571 15.7047C115.571 16.0645 115.463 16.3564 115.247 16.5803C115.031 16.8042 114.711 16.9521 114.287 17.0241ZM113.04 14.8411C112.704 14.8411 112.376 14.8651 112.056 14.9131V16.7003H113.244C113.627 16.7003 113.923 16.6283 114.131 16.4843C114.339 16.3404 114.443 16.0965 114.443 15.7527C114.443 15.4328 114.327 15.2009 114.095 15.057C113.863 14.9131 113.511 14.8411 113.04 14.8411ZM113.232 19.5909C113.703 19.5909 114.071 19.511 114.335 19.3511C114.599 19.1911 114.731 18.9033 114.731 18.4874C114.731 18.1436 114.619 17.8957 114.395 17.7438C114.171 17.5918 113.791 17.5159 113.256 17.5159H112.056V19.5909H113.232Z" fill="white"/>
<path d="M60.0404 38.6486L59.3183 35.9618H55.4728L54.7508 38.6486H52.4502L56.0606 27.045H58.7977L62.3913 38.6486H60.0404ZM55.9094 34.2826H58.8649L57.3872 28.7411L55.9094 34.2826Z" fill="white"/>
<path d="M68.2184 29.5135C69.3379 29.5135 70.1663 29.9221 70.7037 30.7394C71.241 31.5566 71.5097 32.7041 71.5097 34.1818C71.5097 35.0998 71.3698 35.917 71.0899 36.6335C70.8212 37.3388 70.4182 37.8929 69.8808 38.2959C69.3547 38.699 68.7278 38.9005 68.0001 38.9005C67.0597 38.9005 66.3153 38.5758 65.7667 37.9265V42.0742L63.6173 42.3093V29.7654H65.498L65.6156 30.8569C65.9626 30.4091 66.36 30.0733 66.8078 29.8494C67.2556 29.6255 67.7258 29.5135 68.2184 29.5135ZM67.3956 37.2548C68.6382 37.2548 69.2595 36.2361 69.2595 34.1986C69.2595 33.1127 69.1196 32.329 68.8397 31.8477C68.5598 31.3663 68.14 31.1256 67.5803 31.1256C67.222 31.1256 66.8862 31.2375 66.5727 31.4614C66.2593 31.6741 65.9906 31.9652 65.7667 32.3346V36.3312C66.1809 36.947 66.7239 37.2548 67.3956 37.2548Z" fill="white"/>
<path d="M78.2217 29.5135C79.3412 29.5135 80.1696 29.9221 80.707 30.7394C81.2443 31.5566 81.513 32.7041 81.513 34.1818C81.513 35.0998 81.373 35.917 81.0932 36.6335C80.8245 37.3388 80.4215 37.8929 79.8841 38.2959C79.358 38.699 78.731 38.9005 78.0034 38.9005C77.063 38.9005 76.3185 38.5758 75.77 37.9265V42.0742L73.6206 42.3093V29.7654H75.5013L75.6189 30.8569C75.9659 30.4091 76.3633 30.0733 76.8111 29.8494C77.2589 29.6255 77.7291 29.5135 78.2217 29.5135ZM77.3988 37.2548C78.6415 37.2548 79.2628 36.2361 79.2628 34.1986C79.2628 33.1127 79.1229 32.329 78.843 31.8477C78.5631 31.3663 78.1433 31.1256 77.5836 31.1256C77.2253 31.1256 76.8895 31.2375 76.576 31.4614C76.2626 31.6741 75.9939 31.9652 75.77 32.3346V36.3312C76.1842 36.947 76.7272 37.2548 77.3988 37.2548Z" fill="white"/>
<path d="M91.2308 26.7932C92.048 26.7932 92.7589 26.9107 93.3634 27.1458C93.968 27.3809 94.5333 27.7391 95.0595 28.2205L93.968 29.4799C93.5538 29.1329 93.1339 28.881 92.7085 28.7243C92.2943 28.5675 91.8465 28.4892 91.3651 28.4892C90.8278 28.4892 90.3912 28.6123 90.0553 28.8586C89.7307 29.0937 89.5684 29.4296 89.5684 29.8662C89.5684 30.1572 89.6299 30.3979 89.7531 30.5882C89.8874 30.7785 90.1225 30.9577 90.4584 31.1256C90.7942 31.2935 91.2924 31.4782 91.9529 31.6797C93.0948 32.038 93.9512 32.4858 94.5221 33.0231C95.1043 33.5493 95.3953 34.3217 95.3953 35.3405C95.3953 36.0346 95.2162 36.6503 94.858 37.1876C94.5109 37.725 94.0071 38.1448 93.3466 38.4471C92.6861 38.7493 91.9025 38.9005 90.9957 38.9005C90.1113 38.9005 89.3165 38.7605 88.6112 38.4807C87.9171 38.1896 87.3182 37.7978 86.8144 37.3052L87.9563 36.029C88.4041 36.4096 88.8687 36.7007 89.3501 36.9022C89.8314 37.0925 90.3632 37.1876 90.9453 37.1876C91.5834 37.1876 92.0984 37.0365 92.4902 36.7343C92.8821 36.432 93.078 36.0066 93.078 35.458C93.078 35.1222 93.0108 34.8479 92.8765 34.6352C92.7421 34.4113 92.5126 34.2154 92.188 34.0475C91.8633 33.8684 91.3931 33.6836 90.7774 33.4933C89.546 33.1127 88.656 32.6537 88.1074 32.1163C87.5589 31.579 87.2846 30.8737 87.2846 30.0005C87.2846 29.3624 87.4525 28.8026 87.7884 28.3213C88.1242 27.8399 88.5888 27.4648 89.1821 27.1962C89.7867 26.9275 90.4695 26.7932 91.2308 26.7932Z" fill="white"/>
<path d="M102.307 38.2288C101.993 38.4527 101.64 38.6206 101.249 38.7325C100.868 38.8445 100.476 38.9005 100.073 38.9005C99.2 38.8893 98.5339 38.643 98.0749 38.1616C97.6271 37.669 97.4032 36.947 97.4032 35.9954V31.3103H96.0094V29.7654H97.4032V27.8007L99.5526 27.5488V29.7654H101.618L101.4 31.3103H99.5526V35.945C99.5526 36.3816 99.6254 36.6951 99.7709 36.8854C99.9276 37.0757 100.168 37.1709 100.493 37.1709C100.818 37.1709 101.17 37.0645 101.551 36.8518L102.307 38.2288Z" fill="white"/>
<path d="M106.864 29.5135C108.174 29.5135 109.193 29.9333 109.92 30.773C110.659 31.6014 111.029 32.7433 111.029 34.1986C111.029 35.1278 110.861 35.9506 110.525 36.6671C110.189 37.3724 109.708 37.9209 109.081 38.3127C108.454 38.7046 107.709 38.9005 106.847 38.9005C105.537 38.9005 104.513 38.4863 103.774 37.6578C103.035 36.8182 102.666 35.6651 102.666 34.1986C102.666 33.2694 102.834 32.4522 103.17 31.7469C103.506 31.0416 103.987 30.4931 104.614 30.1013C105.252 29.7094 106.002 29.5135 106.864 29.5135ZM106.864 31.1424C105.577 31.1424 104.933 32.1611 104.933 34.1986C104.933 35.2509 105.09 36.029 105.403 36.5327C105.728 37.0253 106.209 37.2716 106.847 37.2716C107.485 37.2716 107.961 37.0197 108.275 36.516C108.599 36.0122 108.762 35.2397 108.762 34.1986C108.762 33.1575 108.599 32.3906 108.275 31.898C107.961 31.3943 107.491 31.1424 106.864 31.1424Z" fill="white"/>
<path d="M117.426 29.5303C117.751 29.5303 118.047 29.5695 118.316 29.6479L117.947 31.7301C117.678 31.6629 117.415 31.6294 117.157 31.6294C116.631 31.6294 116.217 31.8197 115.915 32.2003C115.613 32.5697 115.372 33.1407 115.193 33.9131V38.6486H113.043V29.7654H114.907L115.109 31.5118C115.322 30.8737 115.629 30.3867 116.032 30.0509C116.435 29.7038 116.9 29.5303 117.426 29.5303Z" fill="white"/>
<path d="M126.432 33.9971C126.432 34.109 126.415 34.4001 126.381 34.8703H120.806C120.873 35.7323 121.097 36.348 121.478 36.7175C121.858 37.0869 122.362 37.2716 122.989 37.2716C123.381 37.2716 123.75 37.21 124.097 37.0869C124.445 36.9526 124.814 36.751 125.206 36.4824L126.096 37.7082C125.111 38.5031 124.014 38.9005 122.804 38.9005C121.45 38.9005 120.403 38.4863 119.664 37.6578C118.937 36.8294 118.573 35.6987 118.573 34.2658C118.573 33.359 118.729 32.5473 119.043 31.8309C119.356 31.1032 119.81 30.5379 120.403 30.1348C120.996 29.7206 121.702 29.5135 122.519 29.5135C123.762 29.5135 124.724 29.9109 125.407 30.7058C126.09 31.4894 126.432 32.5865 126.432 33.9971ZM124.299 33.3758C124.299 31.8197 123.722 31.0416 122.569 31.0416C122.043 31.0416 121.629 31.2375 121.327 31.6294C121.036 32.01 120.862 32.6257 120.806 33.4765H124.299V33.3758Z" fill="white"/>
</svg>
