<svg width="131" height="40" viewBox="0 0 131 40" fill="none" xmlns="http://www.w3.org/2000/svg">
<g clip-path="url(#clip0)">
<mask id="mask0" mask-type="alpha" maskUnits="userSpaceOnUse" x="0" y="0" width="40" height="40">
<path d="M19.58 2.01628e-07C15.7099 0.005935 11.9284 1.15924 8.71361 3.31411C5.49886 5.46898 2.99521 8.52865 1.51919 12.1063C0.0431708 15.6839 -0.338933 19.6189 0.421187 23.4136C1.18131 27.2084 3.04952 30.6926 5.78962 33.4257C8.52973 36.1588 12.0187 38.0181 15.8154 38.7686C19.6121 39.519 23.5461 39.1268 27.1199 37.6417C30.6938 36.1565 33.747 33.6451 35.8937 30.4248C38.0403 27.2046 39.184 23.4202 39.18 19.55C39.1668 14.3552 37.0918 9.37818 33.411 5.71241C29.7303 2.04665 24.7448 -0.0079679 19.55 2.01628e-07" fill="white"/>
</mask>
<g mask="url(#mask0)">
<path d="M37.8917 1.21706L1.20175 1.26829L1.25297 37.9482L37.9429 37.897L37.8917 1.21706Z" fill="url(#paint0_linear)"/>
</g>
<path d="M4.89999 8.61H34.2C32.4933 6.33701 30.2811 4.49232 27.7385 3.22185C25.1958 1.95139 22.3924 1.28999 19.55 1.28999C16.7076 1.28999 13.9042 1.95139 11.3615 3.22185C8.81884 4.49232 6.60668 6.33701 4.89999 8.61" fill="black"/>
<path d="M37.88 19.55C37.8801 18.3207 37.7561 17.0945 37.51 15.89L1.61001 15.94C1.12166 18.3556 1.12166 20.8444 1.61001 23.26L37.51 23.21C37.7521 22.0051 37.8727 20.779 37.87 19.55" fill="black"/>
<path d="M19.59 37.88C22.4328 37.8785 25.2361 37.2143 27.7774 35.9401C30.3187 34.666 32.5281 32.817 34.23 30.54H4.92001C6.6292 32.8137 8.84515 34.6575 11.3918 35.9247C13.9384 37.192 16.7455 37.8478 19.59 37.84" fill="black"/>
<path d="M106.49 16.44L106.39 16.5L106.18 15.89C106.144 15.7915 106.078 15.7063 105.993 15.6456C105.907 15.5849 105.805 15.5516 105.7 15.55H104.61C104.474 15.5526 104.344 15.6086 104.249 15.7058C104.153 15.803 104.1 15.9338 104.1 16.07V29.99C104.103 30.1235 104.158 30.2507 104.253 30.3442C104.348 30.4377 104.476 30.49 104.61 30.49H106.55C106.617 30.4913 106.684 30.4794 106.746 30.455C106.808 30.4306 106.865 30.3942 106.914 30.3477C106.962 30.3013 107.001 30.2458 107.027 30.1844C107.054 30.123 107.069 30.057 107.07 29.99V18.72H107.12C108.102 18.2075 109.205 17.9724 110.31 18.04C112.2 18.04 112.58 18.75 112.58 19.9V30C112.583 30.1335 112.638 30.2607 112.733 30.3542C112.828 30.4477 112.956 30.5 113.09 30.5H115.09C115.224 30.5 115.352 30.4477 115.447 30.3542C115.543 30.2607 115.597 30.1335 115.6 30V20C115.6 16.93 113.78 15.32 110.36 15.32C109.003 15.3477 107.68 15.7529 106.54 16.49" fill="white"/>
<path d="M100.8 16.07C100.801 16.0027 100.789 15.9357 100.764 15.8732C100.739 15.8107 100.701 15.754 100.654 15.7063C100.606 15.6587 100.549 15.6212 100.487 15.596C100.424 15.5709 100.357 15.5586 100.29 15.56H98.42C98.3522 15.56 98.285 15.5735 98.2225 15.5998C98.16 15.626 98.1033 15.6645 98.0558 15.7129C98.0083 15.7613 97.971 15.8187 97.9459 15.8818C97.9209 15.9448 97.9087 16.0122 97.91 16.08V29.98C97.9087 30.0478 97.9209 30.1152 97.9459 30.1782C97.971 30.2413 98.0083 30.2987 98.0558 30.3471C98.1033 30.3955 98.16 30.434 98.2225 30.4602C98.285 30.4865 98.3522 30.5 98.42 30.5H100.3C100.367 30.5001 100.434 30.4865 100.496 30.4601C100.558 30.4338 100.614 30.3951 100.661 30.3466C100.708 30.298 100.744 30.2405 100.768 30.1775C100.792 30.1145 100.803 30.0473 100.8 29.98V16.07Z" fill="white"/>
<path d="M94.34 9.1C94.34 8.96474 94.2863 8.83501 94.1906 8.73937C94.095 8.64373 93.9653 8.59 93.83 8.59H91.94C91.8038 8.58997 91.673 8.64338 91.5758 8.73875C91.4786 8.83412 91.4226 8.96382 91.42 9.1V29.97C91.42 30.1079 91.4748 30.2402 91.5723 30.3377C91.6698 30.4352 91.8021 30.49 91.94 30.49H93.82C93.8878 30.49 93.955 30.4765 94.0175 30.4502C94.0801 30.424 94.1367 30.3855 94.1842 30.3371C94.2317 30.2887 94.2691 30.2313 94.2941 30.1682C94.3191 30.1052 94.3313 30.0378 94.33 29.97L94.34 9.1Z" fill="white"/>
<path d="M65.22 21.77C65.36 19.84 65.88 18.07 68.55 18.07C70.87 18.07 71.32 19.31 71.37 21.77V21.87H65.21L65.22 21.77ZM62.22 23.08C62.22 24.99 62.22 30.83 68.56 30.82C70.1856 30.8839 71.8099 30.6639 73.36 30.17C73.4519 30.1345 73.5303 30.0709 73.5842 29.9884C73.638 29.9058 73.6645 29.8084 73.66 29.71V28.13C73.6618 28.046 73.6415 27.963 73.6011 27.8893C73.5608 27.8156 73.5017 27.7537 73.43 27.71C73.2759 27.6488 73.1041 27.6488 72.95 27.71C71.5063 28.0076 70.0337 28.1417 68.56 28.11C65.92 28.11 65.39 26.44 65.23 24.63V24.52H73.86C73.9918 24.5174 74.1175 24.4639 74.2107 24.3707C74.3039 24.2775 74.3574 24.1518 74.36 24.02V23.12C74.36 19.38 73.91 15.38 68.56 15.38C62.23 15.38 62.23 21.22 62.24 23.13" fill="white"/>
<path d="M79.64 21.75C79.79 19.82 80.29 18.05 82.97 18.05C85.28 18.05 85.74 19.29 85.79 21.75V21.85H79.63L79.64 21.75ZM76.64 23.06C76.64 24.97 76.64 30.81 82.99 30.8C84.6124 30.8641 86.2334 30.6442 87.78 30.15C87.8728 30.1158 87.9522 30.0525 88.0062 29.9697C88.0602 29.8868 88.0861 29.7887 88.08 29.69V28.11C88.0818 28.026 88.0615 27.943 88.0211 27.8693C87.9808 27.7956 87.9218 27.7338 87.85 27.69C87.6961 27.6277 87.524 27.6277 87.37 27.69C85.9294 27.9552 84.4637 28.0591 83 28C80.37 28 79.85 26.33 79.68 24.52V24.41H88.3C88.4336 24.41 88.5618 24.3577 88.6572 24.2642C88.7525 24.1707 88.8074 24.0435 88.81 23.91V23C88.81 19.26 88.37 15.26 83.01 15.26C76.67 15.26 76.68 21.1 76.68 23.01" fill="white"/>
<path d="M121.13 21.69C121.26 19.76 121.77 17.99 124.46 17.99C126.77 17.99 127.23 19.23 127.28 21.69V21.79H121.12L121.13 21.69ZM118.13 23C118.13 24.91 118.13 30.75 124.48 30.74C126.102 30.8027 127.723 30.5828 129.27 30.09C129.365 30.0575 129.446 29.995 129.502 29.912C129.558 29.829 129.585 29.73 129.58 29.63V28.05C129.583 27.9646 129.562 27.8801 129.52 27.8059C129.477 27.7317 129.415 27.6708 129.34 27.63C129.266 27.5984 129.186 27.5821 129.105 27.5821C129.024 27.5821 128.944 27.5984 128.87 27.63C127.426 27.9261 125.954 28.0602 124.48 28.03C121.84 28.03 121.32 26.36 121.15 24.55V24.44H129.77C129.904 24.44 130.032 24.3877 130.127 24.2942C130.223 24.2007 130.277 24.0735 130.28 23.94V23C130.28 19.26 129.83 15.26 124.48 15.26C118.14 15.26 118.15 21.1 118.15 23.01" fill="white"/>
<path d="M52.81 20.65C55.81 20.65 56.87 21.56 56.87 24.13C56.87 25.86 56.4 27.62 52.76 27.62H48.39V20.62L52.81 20.65ZM52.57 11.53C55.73 11.53 56.17 13.02 56.17 14.65C56.17 16.72 55.08 17.71 52.8 17.72H48.38V11.53H52.57ZM45.84 8.6C45.6968 8.6 45.5595 8.65689 45.4582 8.75816C45.3569 8.85943 45.3 8.99678 45.3 9.14V30.02C45.2987 30.0917 45.3117 30.163 45.3382 30.2297C45.3648 30.2964 45.4043 30.3571 45.4546 30.4083C45.5049 30.4595 45.5649 30.5002 45.631 30.528C45.6972 30.5557 45.7683 30.57 45.84 30.57H52.63C57.48 30.57 60.15 28.27 60.14 24.14C60.1781 23.1014 59.9296 22.0724 59.4216 21.1657C58.9135 20.259 58.1657 19.5098 57.26 19H57.18L57.26 18.94C57.9371 18.4588 58.4898 17.8232 58.8724 17.0858C59.2549 16.3485 59.4564 15.5307 59.46 14.7C59.46 12.43 58.54 8.64 52.46 8.65L45.84 8.6Z" fill="white"/>
<path d="M97.67 10.26C97.668 10.5927 97.7649 10.9185 97.9483 11.1961C98.1317 11.4737 98.3933 11.6905 98.7001 11.8192C99.0069 11.9479 99.345 11.9826 99.6716 11.9189C99.9981 11.8552 100.298 11.696 100.534 11.4615C100.77 11.2269 100.931 10.9276 100.997 10.6015C101.063 10.2753 101.03 9.93699 100.903 9.62943C100.776 9.32186 100.561 9.05889 100.284 8.87384C100.008 8.6888 99.6827 8.59001 99.35 8.59C99.1299 8.58869 98.9116 8.63091 98.7079 8.71424C98.5041 8.79758 98.3188 8.92038 98.1627 9.07559C98.0065 9.23079 97.8826 9.41534 97.7981 9.6186C97.7135 9.82187 97.67 10.0399 97.67 10.26" fill="white"/>
<path d="M19.58 1.27C24.3607 1.38175 28.908 3.35937 32.2497 6.78005C35.5913 10.2007 37.4621 14.793 37.4621 19.575C37.4621 24.357 35.5913 28.9493 32.2497 32.37C28.908 35.7906 24.3607 37.7683 19.58 37.88V37.88C14.7993 37.7683 10.252 35.7906 6.91035 32.37C3.5687 28.9493 1.69788 24.357 1.69788 19.575C1.69788 14.793 3.5687 10.2007 6.91035 6.78005C10.252 3.35937 14.7993 1.38175 19.58 1.27V1.27V1.27ZM19.58 2.01628e-07C15.7099 0.005935 11.9284 1.15924 8.71361 3.31411C5.49886 5.46898 2.99521 8.52865 1.51919 12.1063C0.0431708 15.6839 -0.338933 19.6189 0.421187 23.4136C1.18131 27.2084 3.04952 30.6926 5.78962 33.4257C8.52973 36.1588 12.0187 38.0181 15.8154 38.7686C19.6121 39.519 23.5461 39.1268 27.1199 37.6417C30.6938 36.1565 33.747 33.6451 35.8937 30.4248C38.0403 27.2046 39.184 23.4202 39.18 19.55C39.1668 14.3552 37.0918 9.37818 33.411 5.71241C29.7303 2.04665 24.7448 -0.0079679 19.55 2.01628e-07" fill="white"/>
</g>
<defs>
<linearGradient id="paint0_linear" x1="3.15342" y1="21.3002" x2="39.7634" y2="21.2491" gradientUnits="userSpaceOnUse">
<stop stop-color="#FF9900"/>
<stop offset="1" stop-color="#FFCC33"/>
</linearGradient>
<clipPath id="clip0">
<rect width="130.25" height="39.15" fill="white"/>
</clipPath>
</defs>
</svg>
