<svg width="160" height="52" viewBox="0 0 160 52" fill="none" xmlns="http://www.w3.org/2000/svg">
<rect x="0.5" y="0.5" width="159" height="51" rx="7.5" stroke="#E8E8E8"/>
<path d="M60.9209 18.3287V21.0634H60.0213L59.8414 19.2643H55.0795L54.8996 21.0634H54V18.3287H54.5637C54.7796 18.1208 54.9436 17.8569 55.0555 17.537C55.1755 17.2172 55.2754 16.7934 55.3554 16.2656C55.4433 15.7299 55.5753 14.7743 55.7512 13.3989L56.0511 11H60.2492V18.3287H60.9209ZM59.1097 11.9356H57.0466L56.8787 13.4469C56.7348 14.6783 56.6148 15.5779 56.5189 16.1457C56.4309 16.7134 56.311 17.1652 56.159 17.5011C56.0151 17.8369 55.8032 18.1128 55.5233 18.3287H59.1097V11.9356Z" fill="white"/>
<path d="M64.967 12.7992C65.8546 12.7992 66.5423 13.0951 67.03 13.6868C67.5258 14.2785 67.7737 15.0822 67.7737 16.0977C67.7737 16.7534 67.6618 17.3331 67.4379 17.8369C67.214 18.3327 66.8901 18.7205 66.4663 19.0004C66.0425 19.2723 65.5387 19.4082 64.955 19.4082C64.0674 19.4082 63.3757 19.1123 62.8799 18.5206C62.3841 17.9289 62.1363 17.1252 62.1363 16.1097C62.1363 15.454 62.2482 14.8782 62.4721 14.3825C62.696 13.8787 63.0199 13.4909 63.4437 13.219C63.8675 12.9391 64.3752 12.7992 64.967 12.7992ZM64.967 13.6868C63.8715 13.6868 63.3237 14.4944 63.3237 16.1097C63.3237 17.717 63.8675 18.5206 64.955 18.5206C66.0425 18.5206 66.5862 17.713 66.5862 16.0977C66.5862 14.4904 66.0465 13.6868 64.967 13.6868Z" fill="white"/>
<path d="M71.8997 12.7992C72.2755 12.7992 72.6193 12.8552 72.9312 12.9671C73.243 13.0711 73.5429 13.243 73.8308 13.4829L73.303 14.1786C73.0791 14.0186 72.8592 13.9027 72.6433 13.8307C72.4354 13.7508 72.2035 13.7108 71.9476 13.7108C71.4359 13.7108 71.036 13.9147 70.7482 14.3225C70.4683 14.7303 70.3284 15.334 70.3284 16.1337C70.3284 16.9333 70.4683 17.525 70.7482 17.9089C71.028 18.2847 71.4279 18.4726 71.9476 18.4726C72.1955 18.4726 72.4234 18.4366 72.6313 18.3647C72.8392 18.2847 73.0711 18.1608 73.327 17.9928L73.8308 18.7125C73.255 19.1763 72.6113 19.4082 71.8997 19.4082C71.044 19.4082 70.3683 19.1203 69.8726 18.5446C69.3848 17.9688 69.1409 17.1732 69.1409 16.1577C69.1409 15.486 69.2528 14.8982 69.4767 14.3945C69.7006 13.8907 70.0165 13.4989 70.4243 13.219C70.8401 12.9391 71.3319 12.7992 71.8997 12.7992Z" fill="white"/>
<path d="M79.5946 12.9431L79.4627 13.8427H77.4356V19.2643H76.3321V13.8427H74.2451V12.9431H79.5946Z" fill="white"/>
<path d="M83.267 19.3002C83.0191 20.0359 82.6713 20.6156 82.2235 21.0395C81.7837 21.4713 81.152 21.7311 80.3284 21.8191L80.2084 20.9555C80.6242 20.8835 80.9561 20.7796 81.204 20.6436C81.4519 20.5077 81.6478 20.3318 81.7917 20.1159C81.9436 19.908 82.0836 19.6241 82.2115 19.2643H81.8397L79.7166 12.9431H80.8921L82.5833 18.4606L84.2386 12.9431H85.3781L83.267 19.3002Z" fill="white"/>
<path d="M90.3341 19.2643V13.8427H87.7433V19.2643H86.6398V12.9431H91.4376V19.2643H90.3341Z" fill="white"/>
<path d="M97.445 19.2643V16.4815H94.8182V19.2643H93.7147V12.9431H94.8182V15.5939H97.445V12.9431H98.5485V19.2643H97.445Z" fill="white"/>
<path d="M103.2 12.7992C104.087 12.7992 104.775 13.0951 105.263 13.6868C105.759 14.2785 106.006 15.0822 106.006 16.0977C106.006 16.7534 105.894 17.3331 105.671 17.8369C105.447 18.3327 105.123 18.7205 104.699 19.0004C104.275 19.2723 103.771 19.4082 103.188 19.4082C102.3 19.4082 101.608 19.1123 101.113 18.5206C100.617 17.9289 100.369 17.1252 100.369 16.1097C100.369 15.454 100.481 14.8782 100.705 14.3825C100.929 13.8787 101.253 13.4909 101.676 13.219C102.1 12.9391 102.608 12.7992 103.2 12.7992ZM103.2 13.6868C102.104 13.6868 101.556 14.4944 101.556 16.1097C101.556 17.717 102.1 18.5206 103.188 18.5206C104.275 18.5206 104.819 17.713 104.819 16.0977C104.819 14.4904 104.279 13.6868 103.2 13.6868Z" fill="white"/>
<path d="M114.338 15.8338C115.41 15.9378 115.946 16.4335 115.946 17.3211C115.946 17.9848 115.702 18.4766 115.214 18.7965C114.734 19.1083 114.09 19.2643 113.283 19.2643H111.004V13.0271C111.747 12.8752 112.439 12.7992 113.079 12.7992C113.862 12.7992 114.482 12.9471 114.938 13.243C115.394 13.5389 115.622 13.9627 115.622 14.5144C115.622 14.8742 115.514 15.1661 115.298 15.39C115.082 15.6139 114.762 15.7618 114.338 15.8338ZM113.091 13.6508C112.755 13.6508 112.427 13.6748 112.107 13.7228V15.51H113.295C113.679 15.51 113.974 15.438 114.182 15.2941C114.39 15.1501 114.494 14.9062 114.494 14.5624C114.494 14.2425 114.378 14.0106 114.146 13.8667C113.914 13.7228 113.563 13.6508 113.091 13.6508ZM113.283 18.4007C113.754 18.4007 114.122 18.3207 114.386 18.1608C114.65 18.0008 114.782 17.713 114.782 17.2972C114.782 16.9533 114.67 16.7054 114.446 16.5535C114.222 16.4016 113.842 16.3256 113.307 16.3256H112.107V18.4007H113.283Z" fill="white"/>
<path d="M59.7822 25.8733C60.5434 25.8733 61.2151 25.9908 61.7973 26.2259C62.3906 26.4498 62.9503 26.7857 63.4765 27.2335L62.2842 28.4761C61.87 28.1514 61.4782 27.9163 61.1088 27.7708C60.7505 27.6253 60.3307 27.5525 59.8493 27.5525C58.9538 27.5525 58.2205 27.9108 57.6495 28.6272C57.0786 29.3437 56.7931 30.4408 56.7931 31.9185C56.7931 33.4634 57.017 34.5773 57.4648 35.2602C57.9238 35.9431 58.6179 36.2846 59.5471 36.2846C60.2524 36.2846 60.8681 36.1334 61.3942 35.8312V32.8085H59.6478L59.4127 31.1629H63.5773V36.8387C62.3234 37.6 60.9912 37.9806 59.5807 37.9806C57.9238 37.9806 56.6532 37.4656 55.7688 36.4357C54.8956 35.4058 54.459 33.9 54.459 31.9185C54.459 30.6535 54.6941 29.5676 55.1643 28.6608C55.6456 27.7428 56.2894 27.0487 57.0954 26.5786C57.9014 26.1084 58.797 25.8733 59.7822 25.8733Z" fill="white"/>
<path d="M69.3655 28.5936C70.6753 28.5936 71.6941 29.0135 72.4217 29.8531C73.1606 30.6815 73.53 31.8234 73.53 33.2787C73.53 34.2079 73.3621 35.0307 73.0263 35.7472C72.6904 36.4525 72.209 37.001 71.5821 37.3929C70.9552 37.7847 70.2107 37.9806 69.3487 37.9806C68.0389 37.9806 67.0146 37.5664 66.2757 36.738C65.5369 35.8983 65.1674 34.7453 65.1674 33.2787C65.1674 32.3495 65.3353 31.5323 65.6712 30.827C66.007 30.1218 66.4884 29.5732 67.1153 29.1814C67.7534 28.7896 68.5035 28.5936 69.3655 28.5936ZM69.3655 30.2225C68.0781 30.2225 67.4344 31.2412 67.4344 33.2787C67.4344 34.331 67.5911 35.1091 67.9046 35.6129C68.2292 36.1054 68.7106 36.3517 69.3487 36.3517C69.9868 36.3517 70.4626 36.0998 70.7761 35.5961C71.1007 35.0923 71.2631 34.3199 71.2631 33.2787C71.2631 32.2376 71.1007 31.4707 70.7761 30.9782C70.4626 30.4744 69.9924 30.2225 69.3655 30.2225Z" fill="white"/>
<path d="M79.172 28.5936C80.4818 28.5936 81.5006 29.0135 82.2282 29.8531C82.9671 30.6815 83.3365 31.8234 83.3365 33.2787C83.3365 34.2079 83.1686 35.0307 82.8328 35.7472C82.4969 36.4525 82.0155 37.001 81.3886 37.3929C80.7617 37.7847 80.0172 37.9806 79.1552 37.9806C77.8454 37.9806 76.8211 37.5664 76.0822 36.738C75.3434 35.8983 74.9739 34.7453 74.9739 33.2787C74.9739 32.3495 75.1418 31.5323 75.4777 30.827C75.8135 30.1218 76.2949 29.5732 76.9218 29.1814C77.5599 28.7896 78.31 28.5936 79.172 28.5936ZM79.172 30.2225C77.8846 30.2225 77.2409 31.2412 77.2409 33.2787C77.2409 34.331 77.3976 35.1091 77.7111 35.6129C78.0357 36.1054 78.5171 36.3517 79.1552 36.3517C79.7933 36.3517 80.2691 36.0998 80.5826 35.5961C80.9072 35.0923 81.0696 34.3199 81.0696 33.2787C81.0696 32.2376 80.9072 31.4707 80.5826 30.9782C80.2691 30.4744 79.7989 30.2225 79.172 30.2225Z" fill="white"/>
<path d="M93.0759 29.3157C92.5049 29.5172 91.6485 29.618 90.5066 29.618C91.0552 29.8643 91.4582 30.1721 91.7157 30.5416C91.9844 30.8998 92.1187 31.3532 92.1187 31.9017C92.1187 32.4839 91.9732 32.9988 91.6821 33.4466C91.4022 33.8944 90.988 34.2471 90.4395 34.5046C89.9021 34.7621 89.2696 34.8908 88.5419 34.8908C88.1389 34.8908 87.7863 34.846 87.484 34.7565C87.2377 34.9244 87.1146 35.1427 87.1146 35.4114C87.1146 35.8256 87.4728 36.0327 88.1893 36.0327H89.5495C90.1988 36.0327 90.7641 36.139 91.2455 36.3517C91.7381 36.5644 92.1187 36.8667 92.3874 37.2585C92.6561 37.6391 92.7904 38.0702 92.7904 38.5515C92.7904 39.4471 92.4098 40.1412 91.6485 40.6338C90.8873 41.1376 89.7902 41.3895 88.3572 41.3895C87.3273 41.3895 86.5156 41.2831 85.9223 41.0704C85.3402 40.8577 84.926 40.5498 84.6797 40.1468C84.4334 39.7438 84.3102 39.2288 84.3102 38.6019H86.2414C86.2414 38.9154 86.2973 39.1617 86.4093 39.3408C86.5324 39.5199 86.7451 39.6542 87.0474 39.7438C87.3609 39.8334 87.8086 39.8781 88.3908 39.8781C89.208 39.8781 89.7846 39.7774 90.1204 39.5759C90.4563 39.3744 90.6242 39.0833 90.6242 38.7027C90.6242 38.3668 90.4954 38.1037 90.2379 37.9134C89.9805 37.7343 89.6054 37.6447 89.1129 37.6447H87.7695C86.9298 37.6447 86.2973 37.4824 85.8719 37.1578C85.4465 36.8331 85.2338 36.4245 85.2338 35.9319C85.2338 35.6185 85.3234 35.3162 85.5025 35.0251C85.6928 34.7341 85.9503 34.4878 86.2749 34.2863C85.7376 34.0064 85.3402 33.6649 85.0827 33.2619C84.8364 32.8477 84.7132 32.3551 84.7132 31.7842C84.7132 31.1461 84.87 30.5863 85.1834 30.105C85.4969 29.6236 85.9279 29.2541 86.4765 28.9967C87.0362 28.728 87.6743 28.5936 88.3908 28.5936C89.3312 28.616 90.0868 28.5489 90.6578 28.3921C91.2399 28.2242 91.8668 27.9611 92.5385 27.6029L93.0759 29.3157ZM88.4244 30.0546C87.943 30.0546 87.5624 30.2113 87.2825 30.5248C87.0138 30.827 86.8795 31.2356 86.8795 31.7506C86.8795 32.288 87.0194 32.7134 87.2993 33.0268C87.5792 33.3403 87.9654 33.497 88.458 33.497C88.9729 33.497 89.3647 33.3459 89.6334 33.0436C89.9021 32.7302 90.0364 32.2936 90.0364 31.7338C90.0364 30.6143 89.4991 30.0546 88.4244 30.0546Z" fill="white"/>
<path d="M96.4698 37.9806C95.7869 37.9806 95.2495 37.7847 94.8577 37.3929C94.4771 36.9898 94.2868 36.4245 94.2868 35.6968V25.2855L96.4362 25.0504V35.6297C96.4362 36.0439 96.6041 36.251 96.94 36.251C97.1079 36.251 97.2758 36.223 97.4437 36.167L97.8971 37.6783C97.4493 37.8798 96.9735 37.9806 96.4698 37.9806Z" fill="white"/>
<path d="M106.529 33.0772C106.529 33.1892 106.512 33.4802 106.479 33.9504H100.904C100.971 34.8124 101.195 35.4282 101.575 35.7976C101.956 36.167 102.46 36.3517 103.087 36.3517C103.478 36.3517 103.848 36.2902 104.195 36.167C104.542 36.0327 104.911 35.8312 105.303 35.5625L106.193 36.7883C105.208 37.5832 104.111 37.9806 102.902 37.9806C101.547 37.9806 100.501 37.5664 99.7617 36.738C99.0341 35.9095 98.6702 34.7788 98.6702 33.3459C98.6702 32.4391 98.827 31.6275 99.1404 30.911C99.4539 30.1833 99.9073 29.618 100.501 29.215C101.094 28.8007 101.799 28.5936 102.616 28.5936C103.859 28.5936 104.822 28.9911 105.505 29.7859C106.188 30.5695 106.529 31.6667 106.529 33.0772ZM104.396 32.4559C104.396 30.8998 103.82 30.1218 102.667 30.1218C102.141 30.1218 101.726 30.3177 101.424 30.7095C101.133 31.0901 100.96 31.7058 100.904 32.5566H104.396V32.4559Z" fill="white"/>
<path d="M116.148 26.1252C117.637 26.1252 118.79 26.433 119.607 27.0487C120.436 27.6645 120.85 28.588 120.85 29.8195C120.85 31.1069 120.436 32.0753 119.607 32.7246C118.779 33.3627 117.676 33.6817 116.299 33.6817H114.939V37.7287H112.723V26.1252H116.148ZM116.131 32.0193C116.926 32.0193 117.525 31.857 117.928 31.5323C118.331 31.1965 118.533 30.6255 118.533 29.8195C118.533 28.4425 117.732 27.754 116.131 27.754H114.939V32.0193H116.131Z" fill="white"/>
<path d="M124.512 37.9806C123.829 37.9806 123.292 37.7847 122.9 37.3929C122.519 36.9898 122.329 36.4245 122.329 35.6968V25.2855L124.478 25.0504V35.6297C124.478 36.0439 124.646 36.251 124.982 36.251C125.15 36.251 125.318 36.223 125.486 36.167L125.939 37.6783C125.491 37.8798 125.016 37.9806 124.512 37.9806Z" fill="white"/>
<path d="M133.849 35.3778C133.849 35.7248 133.899 35.9823 134 36.1502C134.112 36.307 134.286 36.4301 134.521 36.5197L134.067 37.947C133.564 37.9022 133.149 37.7791 132.825 37.5776C132.511 37.3761 132.271 37.0682 132.103 36.654C131.8 37.1018 131.42 37.4376 130.961 37.6615C130.513 37.8742 130.009 37.9806 129.449 37.9806C128.565 37.9806 127.865 37.7287 127.35 37.2249C126.835 36.7212 126.578 36.0607 126.578 35.2434C126.578 34.2807 126.925 33.5474 127.619 33.0436C128.324 32.5287 129.326 32.2712 130.625 32.2712H131.733V31.7674C131.733 31.1965 131.599 30.799 131.33 30.5751C131.073 30.3401 130.653 30.2225 130.071 30.2225C129.421 30.2225 128.638 30.3792 127.72 30.6927L127.216 29.2318C128.324 28.8063 129.399 28.5936 130.44 28.5936C132.713 28.5936 133.849 29.6124 133.849 31.6499V35.3778ZM130.02 36.4189C130.748 36.4189 131.319 36.0551 131.733 35.3274V33.5306H130.843C129.455 33.5306 128.761 34.0456 128.761 35.0755C128.761 35.5009 128.867 35.8312 129.08 36.0663C129.293 36.3014 129.606 36.4189 130.02 36.4189Z" fill="white"/>
<path d="M140.503 37.7623C140.145 38.8594 139.602 39.7102 138.874 40.3147C138.146 40.9305 137.15 41.2887 135.885 41.3895L135.667 39.8278C136.249 39.7382 136.714 39.6095 137.061 39.4415C137.419 39.2848 137.704 39.0721 137.917 38.8034C138.13 38.5347 138.326 38.1765 138.505 37.7287H137.766L134.945 28.8455H137.228L139.16 36.3014L141.175 28.8455H143.391L140.503 37.7623Z" fill="white"/>
<g clip-path="url(#clip0)">
<path d="M23.2382 14.3839C22.2993 13.8649 21.1969 13.8769 20.2639 14.3914L31.1983 24.4783L34.8716 20.805L23.2382 14.3839Z" fill="white"/>
<path d="M19.1705 15.4233C18.9035 15.8598 18.7505 16.3592 18.7505 16.8887V35.1067C18.7505 35.6196 18.89 36.1086 19.142 36.5361L30.1378 25.5402L19.1705 15.4233Z" fill="white"/>
<path d="M39.7419 23.4927L36.2381 21.5593L32.3008 25.4951L37.126 29.9454L39.7434 28.5009C40.6853 27.979 41.2493 27.043 41.2493 25.9961C41.2478 24.9491 40.6853 24.0132 39.7419 23.4927Z" fill="white"/>
<path d="M31.2402 26.5573L20.2144 37.5831C20.6928 37.8561 21.2178 38.0001 21.7458 38.0001C22.2557 38.0001 22.7687 37.8711 23.2382 37.6116L35.743 30.7105L31.2402 26.5573Z" fill="white"/>
</g>
<defs>
<clipPath id="clip0">
<rect width="24" height="24" fill="white" transform="translate(18 14)"/>
</clipPath>
</defs>
</svg>
