<svg width="22" height="24" viewBox="0 0 22 24" fill="none" xmlns="http://www.w3.org/2000/svg">
<path fill-rule="evenodd" clip-rule="evenodd" d="M15.7689 5.35939C18.6591 5.35939 20.508 8.05015 20.508 8.05015C20.508 8.05015 17.688 9.52154 17.688 12.7191C17.688 16.5129 21.2308 17.6169 21.2308 17.6169C21.2308 17.6169 18.4338 24 15.2954 24C13.5305 24 13.4123 23.0225 11.0649 23.0225C9.02862 23.0225 8.34185 24 6.78831 24C3.82708 24 0 17.7785 0 12.7191C0 7.46308 3.87415 5.35939 6.30369 5.35939C8.43508 5.35939 9.324 6.56585 11.0418 6.56585C12.4865 6.56585 13.6246 5.35939 15.7689 5.35939ZM15.2705 0C15.6969 2.57538 13.2683 5.76092 10.3662 5.65754C9.93969 2.37969 13.0671 0.171692 15.2705 0Z" fill="#7D858E"/>
</svg>
