<svg width="56" height="56" viewBox="0 0 56 56" fill="none" xmlns="http://www.w3.org/2000/svg">
<rect x="0.5" y="0.5" width="55" height="55" rx="7.5" fill="white" stroke="#E8E8E8"/>
<path d="M41.8318 28.5527C41.5289 28.0142 40.8222 27.8123 40.2501 28.1488L36.4136 30.37L35.4376 30.9421V36.2593L36.3463 36.7978C36.3799 36.7978 36.3799 36.8314 36.4136 36.8314L40.1828 39.0189C40.351 39.1535 40.5866 39.2208 40.8222 39.2208C41.4616 39.2208 41.9664 38.716 41.9664 38.0766V33.5671L42 29.1248C42 28.9229 41.9664 28.721 41.8318 28.5527Z" fill="url(#paint0_linear)"/>
<path d="M19.4185 26.8364C22.4137 26.8364 24.8367 24.4134 24.8367 21.4182C24.8367 18.423 22.4137 16 19.4185 16C16.4234 16 14.0003 18.423 14.0003 21.4182C13.9667 24.4134 16.4234 26.8364 19.4185 26.8364ZM19.4185 19.1971C20.6637 19.1971 21.6397 20.2067 21.6397 21.4182C21.6397 22.6634 20.6301 23.6393 19.4185 23.6393C18.207 23.6393 17.1974 22.6297 17.1974 21.4182C17.1638 20.173 18.1734 19.1971 19.4185 19.1971Z" fill="url(#paint1_linear)"/>
<path d="M33.1491 27.1393C32.2741 27.5768 31.2981 27.8461 30.2549 27.8461C28.976 27.8461 27.7645 27.4759 26.7549 26.8028H22.9184C21.9088 27.4759 20.6973 27.8461 19.4185 27.8461C18.3752 27.8461 17.3993 27.6105 16.5243 27.1393C15.7502 27.5768 15.2118 28.4518 15.2118 29.3941V37.6055C15.2118 39.12 16.457 40.3315 17.9377 40.3315H31.7693C33.2837 40.3315 34.4952 39.0863 34.4952 37.6055V29.3941C34.4616 28.4518 33.9231 27.5768 33.1491 27.1393Z" fill="url(#paint2_linear)"/>
<path d="M30.255 26.8364C33.2502 26.8364 35.6732 24.4134 35.6732 21.4182C35.6732 18.423 33.2502 16 30.255 16C27.2598 16 24.8368 18.423 24.8368 21.4182C24.8368 24.4134 27.2598 26.8364 30.255 26.8364ZM30.255 19.1971C31.5002 19.1971 32.4761 20.2067 32.4761 21.4182C32.4761 22.6634 31.4665 23.6393 30.255 23.6393C29.0435 23.6393 28.0339 22.6297 28.0339 21.4182C28.0339 20.173 29.0098 19.1971 30.255 19.1971Z" fill="url(#paint3_linear)"/>
<defs>
<linearGradient id="paint0_linear" x1="42.3104" y1="42.4697" x2="37.3093" y2="35.696" gradientUnits="userSpaceOnUse">
<stop offset="0.075419" stop-color="#FBB033"/>
<stop offset="0.6141" stop-color="#FDC73D"/>
<stop offset="0.959" stop-color="#FFE248"/>
</linearGradient>
<linearGradient id="paint1_linear" x1="14.9894" y1="25.6814" x2="28.589" y2="20.8633" gradientUnits="userSpaceOnUse">
<stop stop-color="#E8990C"/>
<stop offset="0.3903" stop-color="#F4B421"/>
<stop offset="0.7418" stop-color="#FCC62E"/>
<stop offset="1" stop-color="#FFCC33"/>
</linearGradient>
<linearGradient id="paint2_linear" x1="35.4072" y1="44.2431" x2="31.9147" y2="32.6985" gradientUnits="userSpaceOnUse">
<stop offset="0.075419" stop-color="#FBB033"/>
<stop offset="0.6141" stop-color="#FDC73D"/>
<stop offset="0.959" stop-color="#FFE248"/>
</linearGradient>
<linearGradient id="paint3_linear" x1="25.8262" y1="25.6814" x2="39.4254" y2="20.8635" gradientUnits="userSpaceOnUse">
<stop stop-color="#E8990C"/>
<stop offset="0.3903" stop-color="#F4B421"/>
<stop offset="0.7418" stop-color="#FCC62E"/>
<stop offset="1" stop-color="#FFCC33"/>
</linearGradient>
</defs>
</svg>
