<svg width="35" height="26" fill="none" xmlns="http://www.w3.org/2000/svg"><path d="M18.415 13.997c-.86 7.491-2.65 8.913-10.14 8.054C.785 21.19-.637 19.4.222 11.91c.86-7.49 2.649-8.912 10.14-8.052 7.49.858 8.912 2.648 8.053 10.139Z" fill="url(#a)"/><path d="M33.19 8.433c-.747 0-1.369.299-1.96 1.196l-2.352 3.55.212-2.77c.08-1.04-.574-1.976-1.739-1.976-1.086 0-1.755.732-1.818 1.653l-.37 5.06c-.086 1.275.567 1.983 1.637 1.983 1.071 0 1.684-.732 2.157-1.44l2.274-3.439-.205 2.896c-.086 1.189.535 1.983 1.7 1.983 1.078 0 1.771-.637 1.842-1.597l.377-5.124c.071-.991-.417-1.975-1.754-1.975Zm-8.955 6.256c0-1.157-.882-1.904-2.046-2.054 1.086-.228 2.038-.944 2.038-2.109 0-1.29-1-2.022-2.833-2.015H17.68c-1.716 0-2.354.693-2.487 2.582l-.22 3.163c-.15 2.125.456 2.794 2.55 2.794h3.556c2.046 0 3.156-.842 3.156-2.361Zm-3.51-.228c0 .732-.567 1.078-1.511 1.078l-1.001-.008s.157-1.03.258-2.061h.916c.787 0 1.338.322 1.338.991Zm.04-3.463c0 .63-.512 1.008-1.417 1.008h-.754s.076-1.148.027-1.976h.829c.826 0 1.314.355 1.314.968Z" fill="#fff"/><path d="M12.394 8.447c-.755 0-1.36.302-1.964 1.192L8.08 13.18l.218-2.753c.068-1.04-.587-1.98-1.745-1.98-1.075 0-1.746.722-1.813 1.645l-.37 5.07c-.084 1.258.57 1.98 1.612 1.98 1.04 0 1.695-.755 2.182-1.444l2.266-3.441-.202 2.904c-.1 1.175.538 1.98 1.696 1.98 1.074 0 1.779-.637 1.846-1.594l.37-5.12c.083-1.007-.403-1.98-1.746-1.98Z" fill="url(#b)"/><path d="m8.295 10.43-.218 2.753.083 2.518c-.487.688-1.141 1.443-2.182 1.443-1.04 0-1.695-.721-1.611-1.98l.369-5.07c.067-.923.739-1.645 1.813-1.645 1.158 0 1.813.94 1.746 1.98Z" fill="url(#c)"/><path d="M8.302 10.284c0-.96-.621-1.838-1.763-1.838-1.141 0-1.804.856-1.804 1.78 0 .99.743 1.762 1.784 1.762 1.04 0 1.783-.714 1.783-1.704Z" fill="#fff"/><defs><linearGradient id="a" x1="20.439" y1="33.473" x2=".01" y2="2.915" gradientUnits="userSpaceOnUse"><stop offset=".798" stop-color="#F30745"/><stop offset=".977" stop-color="#FFBCCE"/></linearGradient><linearGradient id="b" x1="8.87" y1="12.751" x2="5.239" y2="12.29" gradientUnits="userSpaceOnUse"><stop offset=".15" stop-color="#fff"/><stop offset=".62" stop-color="#fff" stop-opacity=".6"/><stop offset="1" stop-color="#fff" stop-opacity="0"/></linearGradient><linearGradient id="c" x1="5.521" y1="17.078" x2="6.506" y2="11.706" gradientUnits="userSpaceOnUse"><stop offset=".15" stop-color="#fff"/><stop offset=".62" stop-color="#fff" stop-opacity=".6"/><stop offset="1" stop-color="#fff" stop-opacity="0"/></linearGradient></defs></svg>