<svg width="64" height="64" viewBox="0 0 64 64" fill="none" xmlns="http://www.w3.org/2000/svg">
<circle cx="32" cy="32" r="32" fill="#67D449"/>
<path fill-rule="evenodd" clip-rule="evenodd" d="M32.054 19.0769C35.4964 19.0783 38.7277 20.4121 41.1573 22.833C43.5871 25.2537 44.9245 28.4714 44.9231 31.8937C44.9204 38.9553 39.1468 44.7009 32.0542 44.7009H32.0488C29.8951 44.7003 27.7788 44.1625 25.8991 43.142L19.0769 44.9231L20.9026 38.2864C19.7764 36.3442 19.1839 34.1407 19.1849 31.8834C19.1877 24.8221 24.9607 19.0769 32.054 19.0769ZM32 43.0769H31.9954C30.0079 43.0761 28.0586 42.5421 26.3576 41.5334L25.9533 41.2934L21.7609 42.3928L22.8799 38.3067L22.6165 37.8878C21.5076 36.1248 20.9221 34.0871 20.9231 31.995C20.9254 25.8899 25.8946 20.923 32.0044 20.923C34.9631 20.924 37.7443 22.0773 39.8356 24.1702C41.9269 26.2632 43.0779 29.0452 43.0769 32.004C43.0743 38.1095 38.1054 43.0769 32 43.0769Z" fill="white"/>
<path d="M35.3706 33.3922C35.641 33.4904 37.0913 34.2003 37.3862 34.3474C37.6811 34.4944 37.8779 34.5677 37.9514 34.6902C38.0253 34.8127 38.0253 35.4004 37.7796 36.0862C37.5335 36.7719 36.3553 37.3978 35.7885 37.4821C35.2801 37.5577 34.6373 37.5892 33.9306 37.3658C33.5021 37.2305 32.9527 37.05 32.2489 36.7473C29.29 35.4758 27.3574 32.5106 27.2099 32.3147L27.2073 32.3112C27.0503 32.1027 26.0055 30.7145 26.0055 29.2779C26.0055 27.8329 26.7674 27.1228 27.0378 26.8289C27.3082 26.5349 27.6278 26.4615 27.8244 26.4615C28.0212 26.4615 28.2179 26.4632 28.3898 26.4718C28.5709 26.4807 28.8139 26.4035 29.0536 26.9757C29.2993 27.5636 29.8892 29.0086 29.9628 29.1555C30.0367 29.3024 30.086 29.4738 29.9875 29.6698C29.8892 29.8656 29.5695 30.2793 29.2502 30.6739C29.1193 30.8354 28.9489 30.979 29.1207 31.2731C29.2929 31.5668 29.8849 32.5282 30.7617 33.3066C31.8885 34.3067 32.8389 34.6168 33.1339 34.7637C33.4289 34.9107 33.6008 34.8861 33.773 34.6902C33.9451 34.4944 34.5103 33.833 34.7071 33.5393C34.9035 33.2455 35.1004 33.2943 35.3706 33.3922Z" fill="white"/>
</svg>
