<svg width="34" height="34" viewBox="0 0 34 34" fill="none" xmlns="http://www.w3.org/2000/svg">
<rect x="7" y="7" width="20" height="21" fill="white"/>
<path fill-rule="evenodd" clip-rule="evenodd" d="M1.00006 16.9557C1.0245 8.11922 8.20772 0.975624 17.0443 1.00007C25.8808 1.02451 33.0244 8.20773 32.9999 17.0443C32.9755 25.8808 25.7923 33.0244 16.9557 32.9999C8.11921 32.9755 0.975615 25.7923 1.00006 16.9557ZM17.0244 8.46671C14.7069 8.4603 14.416 8.46962 13.5057 8.50853C12.5971 8.54761 11.9766 8.68973 11.4335 8.89925C10.8716 9.11565 10.3947 9.4059 9.91905 9.87907C9.44307 10.3521 9.1502 10.8274 8.92998 11.3879C8.71693 11.93 8.5712 12.5499 8.5278 13.4579C8.48457 14.3679 8.47311 14.659 8.4667 16.9765C8.46029 19.294 8.4698 19.584 8.50852 20.4943C8.54778 21.4029 8.68989 22.0234 8.89924 22.5665C9.11582 23.1284 9.40607 23.6053 9.87924 24.0809C10.3521 24.5569 10.8273 24.8505 11.3877 25.07C11.93 25.2825 12.5499 25.4281 13.458 25.4722C14.3681 25.5162 14.6588 25.5271 16.9761 25.5335C19.2938 25.5399 19.5838 25.5306 20.4941 25.4917C21.4027 25.4526 22.0239 25.3104 22.5674 25.1009C23.1291 24.8845 23.6053 24.5936 24.0807 24.1202C24.5567 23.6472 24.8497 23.1719 25.0698 22.6114C25.2811 22.0693 25.4268 21.4494 25.472 20.5415C25.5154 19.6314 25.5269 19.3412 25.5333 17.0237C25.5397 14.7062 25.5299 14.4153 25.4915 13.505C25.4513 12.5964 25.309 11.9759 25.1007 11.4327C24.8837 10.8709 24.5934 10.394 24.12 9.91835C23.6467 9.44237 23.1728 9.1495 22.6116 8.93017C22.0682 8.71764 21.4481 8.5721 20.5398 8.52798C19.6298 8.48405 19.34 8.47311 17.0217 8.4667L17.0244 8.46671ZM21.5713 11.4341C21.006 11.4326 20.5461 11.8894 20.5445 12.4549C20.5429 13.0203 21.0004 13.4802 21.5657 13.4817C22.131 13.4833 22.5909 13.026 22.5925 12.4606C22.594 11.8953 22.1366 11.4353 21.5713 11.4337L21.5713 11.4341ZM17.0128 12.6179C14.5928 12.6113 12.6253 14.568 12.6186 16.9881C12.6119 19.4082 14.5686 21.3749 16.9887 21.3816C19.4089 21.3883 21.3757 19.4324 21.3824 17.0123C21.3891 14.5923 19.4329 12.6246 17.0128 12.6179Z" fill="url(#paint0_linear)"/>
<path d="M17.0008 14.1555C18.5717 14.1555 19.8453 15.429 19.8453 17C19.8453 18.5709 18.5717 19.8445 17.0008 19.8445C15.4298 19.8445 14.1563 18.5709 14.1563 17C14.1563 15.429 15.4298 14.1555 17.0008 14.1555Z" fill="white"/>
<defs>
<linearGradient id="paint0_linear" x1="17.0443" y1="1.00007" x2="16.9557" y2="32.9999" gradientUnits="userSpaceOnUse">
<stop stop-color="#7523BF"/>
<stop offset="0.369792" stop-color="#C42A66"/>
<stop offset="1" stop-color="#DD903F"/>
</linearGradient>
</defs>
</svg>
