<svg width="32" height="32" viewBox="0 0 32 32" fill="none" xmlns="http://www.w3.org/2000/svg">
<path d="M16 32C24.8366 32 32 24.8366 32 16C32 7.16344 24.8366 0 16 0C7.16344 0 0 7.16344 0 16C0 24.8366 7.16344 32 16 32Z" fill="#25D366"/>
<path d="M16.5274 24.9015H16.5234C14.9311 24.9009 13.3665 24.5014 11.9769 23.7434L6.93332 25.0665L8.28306 20.1364C7.45047 18.6935 7.01237 17.0568 7.01309 15.38C7.01517 10.1343 11.2832 5.86646 16.5273 5.86646C19.0724 5.86755 21.4612 6.85837 23.2575 8.65673C25.0537 10.455 26.0424 12.8453 26.0414 15.3875C26.0393 20.632 21.773 24.8993 16.5274 24.9015ZM12.2106 22.021L12.4993 22.1924C13.7134 22.9129 15.1052 23.2941 16.5242 23.2947H16.5274C20.8859 23.2947 24.4333 19.7472 24.435 15.3869C24.4358 13.2739 23.6141 11.2872 22.1211 9.79245C20.6281 8.29772 18.6426 7.47414 16.5305 7.47341C12.1686 7.47341 8.62117 11.0205 8.61944 15.3805C8.61883 16.8747 9.0369 18.3299 9.82848 19.5889L10.0165 19.8881L9.21764 22.8062L12.2106 22.021ZM21.3205 17.6499C21.2611 17.5507 21.1026 17.4912 20.8649 17.3722C20.6272 17.2532 19.4584 16.6782 19.2405 16.5988C19.0226 16.5195 18.8641 16.4798 18.7056 16.7177C18.5472 16.9557 18.0916 17.4912 17.9529 17.6499C17.8142 17.8085 17.6755 17.8284 17.4379 17.7094C17.2002 17.5904 16.4342 17.3394 15.5261 16.5294C14.8194 15.8991 14.3423 15.1206 14.2037 14.8826C14.065 14.6446 14.1889 14.516 14.3079 14.3975C14.4148 14.2909 14.5456 14.1197 14.6645 13.981C14.7833 13.8422 14.823 13.743 14.9022 13.5844C14.9814 13.4257 14.9418 13.2869 14.8824 13.1679C14.823 13.0489 14.3475 11.8788 14.1494 11.4028C13.9565 10.9392 13.7605 11.002 13.6146 10.9947C13.4761 10.9878 13.3174 10.9863 13.1589 10.9863C13.0005 10.9863 12.7429 11.0458 12.525 11.2838C12.3071 11.5218 11.693 12.0969 11.693 13.267C11.693 14.4371 12.5448 15.5675 12.6637 15.7262C12.7825 15.8849 14.34 18.286 16.7247 19.3157C17.2919 19.5607 17.7347 19.7069 18.08 19.8165C18.6494 19.9975 19.1677 19.9719 19.5772 19.9107C20.034 19.8424 20.9837 19.3356 21.1819 18.7804C21.3799 18.225 21.3799 17.749 21.3205 17.6499Z" fill="#FDFDFD"/>
</svg>
